<?xml version="1.0" encoding="utf-8"?>
<!-- Generator: Adobe Illustrator 18.0.0, SVG Export Plug-In . SVG Version: 6.00 Build 0)  -->
<!DOCTYPE svg PUBLIC "-//W3C//DTD SVG 1.1//EN" "http://www.w3.org/Graphics/SVG/1.1/DTD/svg11.dtd">
<svg version="1.1" id="Layer_1" xmlns="http://www.w3.org/2000/svg" xmlns:xlink="http://www.w3.org/1999/xlink" x="0px" y="0px"
	 viewBox="0 0 104.5 120.7" enable-background="new 0 0 104.5 120.7" xml:space="preserve">
<g id="Layer_2_copy_3_">
	<polygon fill="#3B486D" points="52.3,0 34.8,10 52.3,20 	"/>
	<g>
		<polygon fill="#445179" points="52.3,20 69.7,10 52.3,0 		"/>
	</g>
	<g>
		<polygon fill="#2E3952" points="69.7,10 52.3,20 69.7,30.1 		"/>
	</g>
	<polygon fill="#1F2538" points="52.3,20 34.8,30.1 52.3,40.1 	"/>
	<g>
		<polygon fill="#33415F" points="69.7,30.1 52.3,40.1 69.7,50.3 		"/>
	</g>
	<polygon fill="#272D46" points="52.3,40.1 34.8,50.3 52.3,60.3 	"/>
	<polygon fill="#2E3952" points="34.8,10 17.4,20 34.8,30.1 	"/>
	<polygon fill="#445179" points="17.4,20 0,30.1 17.4,40.1 	"/>
	<polygon fill="#33415F" points="17.4,40.1 0,50.3 17.4,60.3 	"/>
	<polygon fill="#272D46" points="17.4,60.3 0,70.4 17.4,80.4 	"/>
	<polygon fill="#272D46" points="17.4,80.4 0,90.6 17.4,100.5 	"/>
	<polygon fill="#272D46" points="87.1,20 69.7,30.1 87.1,40.1 	"/>
	<polygon fill="#3B486D" points="104.5,30.1 87.1,40.1 104.5,50.3 	"/>
	<polygon fill="#21273A" points="69.7,50.3 52.3,60.3 69.7,70.4 	"/>
	<polygon fill="#2E3952" points="104.5,50.3 87.1,60.3 104.5,70.4 	"/>
	<polygon fill="#1F2538" points="104.5,70.4 87.1,80.4 104.5,90.6 	"/>
	<polygon fill="#1F2538" points="87.1,80.4 69.7,90.6 87.1,100.5 	"/>
	<polygon fill="#1F2538" points="52.3,80.4 34.8,90.6 52.3,100.5 	"/>
	<polygon fill="#1F2538" points="69.7,90.6 52.3,100.5 69.7,110.7 	"/>
	<polygon fill="#33415F" points="52.3,100.5 34.8,110.7 52.3,120.7 	"/>
	<polygon fill="#272D46" points="34.8,90.6 17.4,100.5 34.8,110.7 	"/>
	<polygon fill="#272D46" points="34.8,30.1 52.3,20 34.8,10 	"/>
	<polygon fill="#33415F" points="17.4,40.1 34.8,30.1 17.4,20 	"/>
	<polygon fill="#3B486D" points="0,50.3 17.4,40.1 0,30.1 	"/>
	<polygon fill="#2E3952" points="0,70.4 17.4,60.3 0,50.3 	"/>
	<polygon fill="#1F2538" points="0,90.6 17.4,80.4 0,70.4 	"/>
	<polygon fill="#1F2538" points="17.4,100.5 34.8,90.6 17.4,80.4 	"/>
	<polygon fill="#2E3952" points="34.8,50.3 52.3,40.1 34.8,30.1 	"/>
	<polygon fill="#1F2538" points="34.8,70.4 52.3,60.3 34.8,50.3 	"/>
	<polygon fill="#2E3952" points="34.8,110.7 52.3,100.5 34.8,90.6 	"/>
	<polygon fill="#2E3952" points="52.3,120.7 69.7,110.7 52.3,100.5 	"/>
	<polygon fill="#2E3952" points="69.7,110.7 87.1,100.5 69.7,90.6 	"/>
	<polygon fill="#272D46" points="87.1,100.5 104.5,90.6 87.1,80.4 	"/>
	<polygon fill="#272D46" points="52.3,100.5 69.7,90.6 52.3,80.4 	"/>
	<polygon fill="#1F2538" points="52.3,60.3 69.7,50.3 52.3,40.1 	"/>
	<g>
		<polygon fill="#272D46" points="52.3,40.1 69.7,30.1 52.3,20 		"/>
	</g>
	<polygon fill="#2E3952" points="69.7,30.1 87.1,20 69.7,10 	"/>
	<polygon fill="#272D46" points="87.1,80.4 104.5,70.4 87.1,60.3 	"/>
	<polygon fill="#33415F" points="87.1,60.3 104.5,50.3 87.1,40.1 	"/>
	<polygon fill="#445179" points="87.1,40.1 104.5,30.1 87.1,20 	"/>
</g>
</svg>
